<?xml version="1.0" standalone="no"?>
<!DOCTYPE svg PUBLIC "-//W3C//DTD SVG 20010904//EN"
 "http://www.w3.org/TR/2001/REC-SVG-20010904/DTD/svg10.dtd">
<svg version="1.0" xmlns="http://www.w3.org/2000/svg"
 width="608.000000pt" height="608.000000pt" viewBox="0 0 608.000000 608.000000"
 preserveAspectRatio="xMidYMid meet">
<metadata>
Created by potrace 1.14, written by Peter Selinger 2001-2017
</metadata>
<g transform="translate(0.000000,608.000000) scale(0.100000,-0.100000)"
fill="#000000" stroke="none">
<path d="M2770 5909 c-282 -24 -616 -107 -870 -214 -216 -90 -503 -262 -690
-411 -109 -87 -347 -325 -434 -434 -275 -345 -477 -770 -571 -1205 -46 -210
-59 -343 -59 -600 0 -257 13 -390 59 -600 94 -435 296 -860 571 -1205 87 -109
325 -347 434 -434 342 -273 775 -479 1201 -570 216 -47 346 -60 604 -60 258 0
388 13 604 60 426 91 859 297 1201 570 109 87 347 325 434 434 327 409 538
907 612 1440 24 173 24 557 0 730 -74 533 -285 1031 -612 1440 -87 109 -325
347 -434 434 -150 120 -349 245 -535 336 -301 148 -575 232 -900 275 -146 19
-472 27 -615 14z m917 -2421 c-3 -7 -5 -2 -5 12 0 14 2 19 5 13 2 -7 2 -19 0
-25z m-1374 -15 c-7 -2 -21 -2 -30 0 -10 3 -4 5 12 5 17 0 24 -2 18 -5z m1987
-3 c0 -5 -4 -10 -10 -10 -5 0 -10 5 -10 10 0 6 5 10 10 10 6 0 10 -4 10 -10z
m-1290 -10 c0 -5 -5 -10 -11 -10 -5 0 -7 5 -4 10 3 6 8 10 11 10 2 0 4 -4 4
-10z m-660 -15 c-7 -8 -22 -14 -34 -14 -20 2 -20 2 2 6 12 2 22 9 22 14 0 5 5
9 11 9 8 0 8 -5 -1 -15z m1575 6 c3 -5 2 -12 -3 -15 -5 -3 -9 1 -9 9 0 17 3
19 12 6z m-955 -43 c0 -12 -7 -18 -22 -17 -19 1 -20 2 -5 6 15 4 17 11 13 31
-5 20 -4 23 4 12 5 -8 10 -23 10 -32z m-533 26 c-3 -3 -12 -4 -19 -1 -8 3 -5
6 6 6 11 1 17 -2 13 -5z m601 -25 c-6 -16 -12 -29 -13 -27 -6 6 8 58 16 58 4
0 3 -14 -3 -31z m589 9 c-3 -8 -6 -5 -6 6 -1 11 2 17 5 13 3 -3 4 -12 1 -19z
m663 18 c0 -3 -4 -8 -10 -11 -5 -3 -10 -1 -10 4 0 6 5 11 10 11 6 0 10 -2 10
-4z m-2147 -23 c-7 -2 -19 -2 -25 0 -7 3 -2 5 12 5 14 0 19 -2 13 -5z m924
-25 c-3 -7 -5 -2 -5 12 0 14 2 19 5 13 2 -7 2 -19 0 -25z m613 22 c0 -5 -7
-10 -16 -10 -8 0 -12 5 -9 10 3 6 10 10 16 10 5 0 9 -4 9 -10z m314 -22 c8 -5
7 -8 -1 -8 -7 0 -13 -8 -13 -17 -1 -16 -2 -16 -13 -2 -7 8 -20 18 -29 22 -10
3 -18 12 -18 19 0 9 3 9 12 0 18 -18 38 -15 39 6 0 13 2 14 6 2 3 -8 11 -18
17 -22z m291 12 c3 -5 1 -10 -4 -10 -6 0 -11 5 -11 10 0 6 2 10 4 10 3 0 8 -4
11 -10z m-1740 -10 c3 -5 1 -10 -4 -10 -6 0 -11 5 -11 10 0 6 2 10 4 10 3 0 8
-4 11 -10z m1025 0 c-8 -5 -24 -10 -35 -11 -19 -1 -19 -2 -1 -6 15 -4 16 -7 5
-14 -12 -8 -12 -11 1 -19 8 -5 10 -10 5 -10 -6 0 -18 9 -27 19 -13 15 -14 22
-5 29 15 12 38 20 57 21 13 1 13 0 0 -9z m51 -47 c13 -16 12 -17 -3 -4 -17 13
-22 21 -14 21 2 0 10 -8 17 -17z m275 -3 c37 14 43 11 12 -5 -32 -18 -60 -10
-50 13 6 16 7 16 10 0 3 -14 8 -15 28 -8z m-1396 6 c0 -3 -4 -8 -10 -11 -5 -3
-10 -1 -10 4 0 6 5 11 10 11 6 0 10 -2 10 -4z m456 -34 c-2 -15 -10 -28 -20
-30 -9 -2 -16 -8 -16 -14 0 -6 -3 -8 -7 -5 -3 4 2 16 12 27 14 15 15 23 6 34
-9 11 -9 15 1 19 20 7 27 -1 24 -31z m104 28 c0 -5 -4 -10 -10 -10 -5 0 -10 5
-10 10 0 6 5 10 10 10 6 0 10 -4 10 -10z m943 -10 c-13 -5 -23 -14 -23 -19 0
-5 -11 -8 -24 -7 -29 1 -24 16 5 16 11 0 17 5 14 10 -4 6 6 10 22 9 27 0 27
-1 6 -9z m-1816 -6 c-3 -3 -12 -4 -19 -1 -8 3 -5 6 6 6 11 1 17 -2 13 -5z
m905 -56 c-7 -7 -12 -8 -12 -2 0 6 3 14 7 17 3 4 9 5 12 2 2 -3 -1 -11 -7 -17z
m-557 2 c3 -5 1 -10 -4 -10 -6 0 -11 5 -11 10 0 6 2 10 4 10 3 0 8 -4 11 -10z
m621 -42 c4 -7 4 -10 -1 -6 -4 4 -14 3 -22 -3 -8 -8 -13 -8 -13 -1 0 6 6 13
13 15 6 3 13 6 14 6 1 1 5 -5 9 -11z m-289 -64 c-3 -3 -12 -4 -19 -1 -8 3 -5
6 6 6 11 1 17 -2 13 -5z m606 -9 c-3 -9 -8 -14 -10 -11 -3 3 -2 9 2 15 9 16
15 13 8 -4z m-287 -19 c2 -13 1 -13 -3 -1 -2 8 -9 13 -14 10 -5 -4 -9 -1 -9 5
0 18 25 5 26 -14z m267 -38 c6 -4 8 -11 3 -15 -5 -4 -11 -2 -13 5 -3 6 -10 9
-16 5 -6 -4 -8 0 -4 10 3 9 1 17 -6 20 -8 2 -7 8 3 19 14 14 15 13 18 -10 2
-15 9 -30 15 -34z m-553 37 c0 -2 -10 -9 -22 -15 -22 -11 -22 -10 -4 4 21 17
26 19 26 11z m600 -29 c0 -3 -4 -8 -10 -11 -5 -3 -10 -1 -10 4 0 6 5 11 10 11
6 0 10 -2 10 -4z m-315 -56 c-3 -5 -10 -10 -16 -10 -5 0 -9 5 -9 10 0 6 7 10
16 10 8 0 12 -4 9 -10z m-155 -21 c0 -8 -47 -5 -56 4 -3 3 8 5 25 5 17 -1 31
-4 31 -9z m-183 -15 c-3 -3 -12 -4 -19 -1 -8 3 -5 6 6 6 11 1 17 -2 13 -5z
m373 -4 c0 -5 -2 -10 -4 -10 -3 0 -8 5 -11 10 -3 6 -1 10 4 10 6 0 11 -4 11
-10z"/>
</g>
</svg>
